# xmcd
#
# Track frame offsets: 
#        150
#        18092
#        37930
#        58746
#        76617
#        95734
#        115463
#        130922
#        147242
#        167668
#        188061
#
# Disc length: 2871 seconds
#
# Revision: 0
# Processed by: cddbd v1.5.2PL0 Copyright (c) Steve Scherf et al.
# Submitted via: ExactAudioCopy v1.3
#
DISCID=890b350b
DTITLE=John Cowan - New Tattoo
DYEAR=2006
DGENRE=Bluegrass
TTITLE0=Carla's Got A New Tattoo
TTITLE1=Love's Like Rain
TTITLE2=Misery and Happiness
TTITLE3=Hurting Sure
TTITLE4=In Bristol Town
TTITLE5=Red Birds (In A Joshua Tree)
TTITLE6=Working In The New Mine
TTITLE7=Back To Your Arms
TTITLE8=With A Memory Like Mine
TTITLE9=Tomorrow Morning
TTITLE10=Drown
EXTD=
EXTT0=
EXTT1=
EXTT2=
EXTT3=
EXTT4=
EXTT5=
EXTT6=
EXTT7=
EXTT8=
EXTT9=
EXTT10=
PLAYORDER=
